<svg xmlns="http://www.w3.org/2000/svg" viewBox="0 0 760 476" font-family="Audiowide, Segoe UI, sans-serif">
<rect width="760" height="476" fill="#05060c"/>
<polyline class="fig-line" points="596.2,191.6 526.8,178.7 459.4,189.7 358.1,240.1 217.0,213.0 163.7,316.6 326.1,289.5 441.7,317.9 490.5,291.5" fill="none" stroke="#a6ccff" stroke-width="2.4" stroke-opacity="0.95" stroke-linejoin="round" data-seq="28910,28103,27288,25985,24305,23685,25606,27072,27654"/>
<polyline class="fig-line" points="219.1,158.1 217.0,213.0 264.3,162.1" fill="none" stroke="#a6ccff" stroke-width="2.4" stroke-opacity="0.95" stroke-linejoin="round" data-seq="24327,24305,24845"/>
<circle class="star" cx="596.2" cy="191.6" r="4.2" fill="#ffffff" data-name="HIP 28910" data-meta="mag 4.67" data-vid="28910"/>
<circle class="star" cx="526.8" cy="178.7" r="4.8" fill="#ffffff" data-name="HIP 28103" data-meta="mag 3.71" data-vid="28103"/>
<circle class="star" cx="459.4" cy="189.7" r="4.9" fill="#ffffff" data-name="HIP 27288" data-meta="mag 3.55" data-vid="27288"/>
<circle class="star" cx="358.1" cy="240.1" r="5.5" fill="#ffffff" data-name="Arneb" data-meta="mag 2.58" data-vid="25985"/>
<text class="star-label" x="367.5" y="244.1" fill="#cfe0ff" font-size="13" font-weight="bold" data-vid="25985">Arneb</text>
<circle class="star" cx="217.0" cy="213.0" r="5.0" fill="#cfe0ff" data-name="HIP 24305" data-meta="mag 3.29" data-vid="24305"/>
<circle class="star" cx="163.8" cy="316.6" r="5.1" fill="#ffd699" data-name="HIP 23685" data-meta="mag 3.19" data-vid="23685"/>
<circle class="star" cx="326.1" cy="289.5" r="5.3" fill="#fff2cc" data-name="Nihal" data-meta="mag 2.81" data-vid="25606"/>
<text class="star-label" x="335.4" y="293.5" fill="#cfe0ff" font-size="13" font-weight="bold" data-vid="25606">Nihal</text>
<circle class="star" cx="441.7" cy="317.9" r="4.8" fill="#ffffff" data-name="HIP 27072" data-meta="mag 3.59" data-vid="27072"/>
<circle class="star" cx="490.5" cy="291.5" r="4.7" fill="#fff2cc" data-name="HIP 27654" data-meta="mag 3.76" data-vid="27654"/>
<circle class="star" cx="219.1" cy="158.1" r="4.4" fill="#cfe0ff" data-name="HIP 24327" data-meta="mag 4.36" data-vid="24327"/>
<circle class="star" cx="264.3" cy="162.1" r="4.4" fill="#cfe0ff" data-name="HIP 24845" data-meta="mag 4.29" data-vid="24845"/>
<circle class="star" cx="135.0" cy="277.6" r="4.1" fill="#cfe0ff" data-name="HIP 23362" data-meta="mag 4.91" data-vid="23362"/>
<circle class="star" cx="212.5" cy="140.1" r="4.3" fill="#cfe0ff" data-name="HIP 24244" data-meta="mag 4.45" data-vid="24244"/>
<circle class="star" cx="250.8" cy="167.8" r="3.7" fill="#fff2cc" data-name="HIP 24679" data-meta="mag 5.48" data-vid="24679"/>
<circle class="star" cx="267.2" cy="147.6" r="3.8" fill="#cfe0ff" data-name="HIP 24873" data-meta="mag 5.29" data-vid="24873"/>
<circle class="star" cx="270.6" cy="297.6" r="4.2" fill="#cfe0ff" data-name="HIP 24927" data-meta="mag 4.7" data-vid="24927"/>
<circle class="star" cx="280.0" cy="357.0" r="4.0" fill="#fff2cc" data-name="HIP 25045" data-meta="mag 5.06" data-vid="25045"/>
<circle class="star" cx="292.3" cy="174.7" r="3.9" fill="#cfe0ff" data-name="HIP 25202" data-meta="mag 5.25" data-vid="25202"/>
<circle class="star" cx="478.3" cy="184.0" r="3.7" fill="#fff2cc" data-name="HIP 27517" data-meta="mag 5.49" data-vid="27517"/>
<circle class="star" cx="587.9" cy="217.7" r="4.0" fill="#ffffff" data-name="HIP 28816" data-meta="mag 4.92" data-vid="28816"/>
<circle class="star" cx="598.9" cy="329.0" r="3.7" fill="#ffffff" data-name="HIP 28943" data-meta="mag 5.46" data-vid="28943"/>
<circle class="star" cx="607.2" cy="262.7" r="3.8" fill="#ffb366" data-name="HIP 29048" data-meta="mag 5.28" data-vid="29048"/>
<circle class="star" cx="616.3" cy="317.5" r="3.7" fill="#cfe0ff" data-name="HIP 29150" data-meta="mag 5.49" data-vid="29150"/>
</svg>